<?xml version="1.0" encoding="UTF-8"?>
<svg id="Layer_2" data-name="Layer 2" xmlns="http://www.w3.org/2000/svg" viewBox="0 0 195.53 102.68">
  <style>
    @keyframes draw {
      to {
        stroke-dashoffset: 0;
      }
    }
    #Layer_1-2 path {
      stroke: #ffffff;
      stroke-width: 2;
      fill: none;
      stroke-dasharray: 1500;
      stroke-dashoffset: 1500;
      animation: draw 3s linear infinite;
    }
  </style>
  <g id="Layer_1-2" data-name="Layer 1">
    <path d="M50.19,0c20.59-.16,23.6,9.31,38.65,16.8,14.9,7.43,20.33-3.91,32.01-10.36,35.16-19.41,77.46,8.88,74.54,48.55-2.43,32.94-37.55,56.95-68.85,44.11-13-5.33-21.76-21.21-37.06-14.03-15.71,7.36-19.21,18.63-41.44,17.53C-17.04,99.39-15.68.51,50.19,0ZM46.27,17.89c-36.03,4.66-38.99,56.54-4.96,65.44,27.86,7.29,32.35-19.31,56.74-18.76s29.64,29.36,59.14,17.24c28.44-11.69,26.48-53.35-2.9-62.46-26.85-8.33-31.71,15.6-51.37,18.2-27.39,3.62-32.11-22.83-56.66-19.65Z"/>
  </g>
</svg>