<?xml version="1.0" encoding="UTF-8"?>
<svg id="Layer_2" data-name="Layer 2" xmlns="http://www.w3.org/2000/svg" viewBox="0 0 567.98 102.68">
  <g id="Layer_1-2" data-name="Layer 1">
    <g style="fill:#ffffff;">
      <path d="M141.8,0c20.59-.16,23.6,9.31,38.65,16.8,14.9,7.43,20.33-3.91,32.01-10.36,35.16-19.41,77.46,8.88,74.54,48.55-2.43,32.94-37.55,56.95-68.85,44.11-13-5.33-21.76-21.21-37.06-14.03-15.71,7.36-19.21,18.63-41.44,17.53C74.58,99.39,75.93.51,141.8,0ZM137.88,17.89c-36.03,4.66-38.99,56.54-4.96,65.44,27.86,7.29,32.35-19.31,56.74-18.76s29.64,29.36,59.14,17.24c28.44-11.69,26.48-53.35-2.9-62.46-26.85-8.33-31.71,15.6-51.37,18.2-27.39,3.62-32.11-22.83-56.66-19.65Z"/>
      <path d="M62.63,1.62c16.01,2.16,26.62,17.62,18.7,32.7-6.3,12.01-34.85,23.76-46.88,31.12-4.59,2.81-16.9,9.32-15.39,15.54.76.69,5.22,2.64,5.56,2.64h56.5v18H24.63c-6.47,0-17.23-5.56-20.93-11.07-8.39-12.45-1.26-24.78,9.1-32.76s47.9-23.75,51.84-32.19c2.12-4.54-3.35-6.98-7.01-6.98H4.13V1.62h58.5Z"/>
      <path d="M504.98,1.62v41h17.5c2.84,0,6.83-5.39,8.3-7.7,6.45-10.17,11.47-22.62,17.2-33.3h20l-17.62,34.88-9.42,14.62c10.54,15.86,19.15,33.14,27.04,50.5h-18.5c-7.91-8.54-14.41-33.27-23.45-39.55-4.61-3.21-16.42-3.68-21.05-.95v40.5h-18V1.62h18Z"/>
      <path d="M467.13,1.62v17h-41.5c-14.25,0-27.4,19.05-27.57,32.48s13.53,32.52,27.57,32.52h41.5v16.5l-1.5,1.5h-40c-23.16,0-45.09-27.2-45.57-49.49-.44-20.51,19.74-50.51,41.57-50.51h45.5Z"/>
      <polygon points="373.13 1.62 373.13 18.62 341.13 18.62 341.13 100.12 339.63 101.62 323.13 101.62 323.13 18.62 290.13 18.62 290.13 1.62 373.13 1.62"/>
      <rect x="420.13" y="42.62" width="33" height="17"/>
    </g>
  </g>
</svg>